<?xml version="1.0" encoding="UTF-8" standalone="no"?>
<svg
   xmlns:dc="http://purl.org/dc/elements/1.1/"
   xmlns:cc="http://creativecommons.org/ns#"
   xmlns:rdf="http://www.w3.org/1999/02/22-rdf-syntax-ns#"
   xmlns:svg="http://www.w3.org/2000/svg"
   xmlns="http://www.w3.org/2000/svg"
   xmlns:sodipodi="http://sodipodi.sourceforge.net/DTD/sodipodi-0.dtd"
   xmlns:inkscape="http://www.inkscape.org/namespaces/inkscape"
   version="1.0"
   width="3100.000000pt"
   height="534.000000pt"
   viewBox="0 0 3100.000000 534.000000"
   preserveAspectRatio="xMidYMid meet"
   id="svg3435"
   inkscape:version="0.49 r12742"
   sodipodi:docname="silversoundz.svg">
  <defs
     id="defs3467" />
  <sodipodi:namedview
     pagecolor="#ffffff"
     bordercolor="#666666"
     borderopacity="1"
     objecttolerance="10"
     gridtolerance="10"
     guidetolerance="10"
     inkscape:pageopacity="0"
     inkscape:pageshadow="2"
     inkscape:window-width="1569"
     inkscape:window-height="968"
     id="namedview3465"
     showgrid="false"
     inkscape:zoom="0.44258612"
     inkscape:cx="510.91312"
     inkscape:cy="329.95712"
     inkscape:window-x="0"
     inkscape:window-y="27"
     inkscape:window-maximized="0"
     inkscape:current-layer="svg3435" />
  <metadata
     id="metadata3437">
Created by potrace 1.11, written by Peter Selinger 2001-2013
<rdf:RDF>
  <cc:Work
     rdf:about="">
    <dc:format>image/svg+xml</dc:format>
    <dc:type
       rdf:resource="http://purl.org/dc/dcmitype/StillImage" />
    <dc:title></dc:title>
  </cc:Work>
</rdf:RDF>
</metadata>
  <g
     transform="matrix(0.12459971,0,0,-0.2575437,-405.95287,949.86131)"
     id="g3439"
     style="fill:#000000;stroke:none">
    <path
       d="m 3761,3639 c -76,-15 -183,-72 -239,-127 -66,-67 -118,-173 -133,-272 -22,-146 10,-256 101,-354 54,-57 81,-73 332,-205 334,-176 355,-189 418,-258 195,-213 10,-589 -318,-645 -216,-37 -412,72 -522,292 -12,25 -24,46 -25,48 -2,2 -26,-8 -54,-22 -48,-25 -50,-27 -40,-53 50,-131 166,-263 286,-326 330,-172 754,10 858,367 13,43 16,85 13,156 -3,88 -7,104 -41,173 -60,121 -107,157 -440,331 -326,170 -387,212 -424,293 -22,49 -25,65 -21,141 5,104 27,160 90,228 85,92 182,131 304,120 126,-10 235,-69 312,-168 l 45,-57 43,36 44,35 -18,30 c -33,58 -126,143 -198,180 -117,61 -249,82 -373,57 z"
       id="path3441"
       inkscape:connector-curvature="0" />
    <path
       d="m 15261,3639 c -76,-15 -183,-72 -239,-127 -66,-67 -118,-173 -133,-272 -22,-148 10,-257 105,-356 53,-55 87,-77 256,-167 107,-57 242,-128 300,-157 136,-70 230,-158 254,-240 69,-233 -116,-496 -382,-542 -216,-37 -412,72 -522,292 -12,25 -24,46 -25,48 -2,2 -26,-8 -54,-22 -48,-25 -50,-27 -40,-53 50,-131 166,-263 286,-326 330,-172 754,10 858,367 13,43 16,85 13,156 -3,88 -7,104 -41,173 -60,121 -107,157 -440,331 -326,170 -387,212 -424,293 -22,49 -25,65 -21,141 3,59 11,102 25,134 25,54 92,131 144,164 166,105 417,47 543,-125 l 38,-51 44,36 44,36 -18,30 c -33,58 -126,143 -198,180 -117,61 -249,82 -373,57 z"
       id="path3443"
       inkscape:connector-curvature="0" />
    <path
       d="m 17537,3635 c -105,-20 -240,-72 -339,-131 -103,-61 -257,-210 -323,-312 -209,-326 -216,-721 -19,-1054 67,-113 229,-275 342,-342 269,-160 592,-189 871,-80 232,92 430,274 541,499 81,164 95,229 95,435 0,203 -14,269 -90,427 -131,269 -372,468 -664,544 -102,27 -307,34 -414,14 z m 406,-139 c 259,-76 452,-243 567,-490 53,-112 70,-182 77,-316 10,-191 -34,-352 -141,-514 -274,-416 -808,-528 -1216,-255 -138,92 -240,213 -315,371 -59,124 -70,183 -70,363 0,139 3,170 23,235 100,321 368,564 689,625 114,21 274,13 386,-19 z"
       id="path3445"
       inkscape:connector-curvature="0" />
    <path
       d="m 21900,2661 0,-981 60,0 60,0 2,831 3,831 803,-856 c 442,-471 805,-856 808,-856 2,0 4,448 4,995 l 0,995 -60,0 -60,0 -2,-844 -3,-845 -795,845 c -437,465 -801,850 -807,856 -10,8 -13,-187 -13,-971 z"
       id="path3447"
       inkscape:connector-curvature="0" />
    <path
       d="m 5560,2650 0,-970 60,0 60,0 0,970 0,970 -60,0 -60,0 0,-970 z"
       id="path3449"
       inkscape:connector-curvature="0" />
    <path
       d="m 6890,2650 0,-970 305,0 305,0 0,60 0,60 -245,0 -245,0 0,910 0,910 -60,0 -60,0 0,-970 z"
       id="path3451"
       inkscape:connector-curvature="0" />
    <path
       d="m 8340,3568 c 10,-29 166,-476 345,-992 179,-517 327,-942 330,-944 2,-3 7,1 10,9 2,8 149,426 325,929 177,503 332,945 345,983 l 25,67 -63,0 -62,0 -284,-825 c -157,-454 -288,-822 -292,-818 -4,5 -134,376 -290,826 l -283,817 -63,0 -63,0 20,-52 z"
       id="path3453"
       inkscape:connector-curvature="0" />
    <path
       d="m 10730,2650 0,-970 460,0 460,0 0,60 0,60 -400,0 -400,0 0,440 0,440 390,0 390,0 0,60 0,60 -390,0 -390,0 0,350 0,350 400,0 400,0 0,60 0,60 -460,0 -460,0 0,-970 z"
       id="path3455"
       inkscape:connector-curvature="0" />
    <path
       d="m 12830,2651 0,-971 60,0 60,0 0,461 0,460 32,-3 c 31,-3 50,-28 340,-452 169,-247 312,-454 316,-458 5,-5 39,-8 75,-6 l 67,3 -313,455 -313,455 85,11 c 301,38 461,210 461,496 0,165 -37,267 -135,364 -120,121 -196,144 -507,151 l -228,6 0,-972 z m 480,824 c 74,-18 147,-61 183,-108 126,-166 113,-403 -29,-537 -91,-86 -174,-109 -396,-110 l -118,0 0,392 0,391 148,-6 c 81,-4 176,-14 212,-22 z"
       id="path3457"
       inkscape:connector-curvature="0" />
    <path
       d="m 19633,2888 c 3,-511 7,-748 16,-783 37,-159 147,-296 301,-373 122,-60 192,-76 335,-76 140,0 209,15 333,75 152,73 266,214 303,374 9,35 13,272 16,783 l 4,732 -60,0 -59,0 -5,-707 c -3,-599 -6,-718 -20,-774 -40,-172 -140,-276 -320,-336 -117,-38 -267,-38 -383,0 -182,60 -280,163 -321,336 -14,56 -17,175 -20,774 l -5,707 -59,0 -60,0 4,-732 z"
       id="path3459"
       inkscape:connector-curvature="0" />
    <path
       d="m 24630,2650 0,-970 233,0 c 329,1 462,22 615,99 522,263 685,966 337,1457 -55,77 -195,209 -268,253 -173,102 -322,131 -689,131 l -228,0 0,-970 z m 500,840 c 221,-27 373,-101 511,-246 137,-146 214,-322 234,-539 23,-244 -91,-522 -284,-696 -166,-150 -310,-197 -638,-206 l -203,-6 0,852 0,851 148,0 c 81,0 186,-5 232,-10 z"
       id="path3461"
       inkscape:connector-curvature="0" />
    <path
       d="m 26830,3560 0,-60 531,0 c 421,0 530,-3 526,-12 -2,-7 -241,-377 -529,-823 -289,-445 -550,-849 -581,-897 l -57,-88 680,0 680,0 0,60 0,60 -571,2 -570,3 563,870 c 310,479 574,887 587,908 l 23,37 -641,0 -641,0 0,-60 z"
       id="path3463"
       inkscape:connector-curvature="0" />
  </g>
</svg>
