<?xml version="1.0" ?><!DOCTYPE svg  PUBLIC '-//W3C//DTD SVG 1.1//EN'  'http://www.w3.org/Graphics/SVG/1.1/DTD/svg11.dtd'><svg enable-background="new 0 0 512 512" height="512px" id="Layer_1" version="1.1" viewBox="0 0 512 512" width="512px" xml:space="preserve" xmlns="http://www.w3.org/2000/svg" xmlns:xlink="http://www.w3.org/1999/xlink"><g id="lastfm"><path d="M254.5,16.5c-131.996,0-239,107.004-239,239s107.004,239,239,239s239-107.004,239-239   S386.496,16.5,254.5,16.5z M412.892,413.892C370.584,456.2,314.333,479.5,254.5,479.5c-59.833,0-116.084-23.3-158.392-65.608   C53.8,371.584,30.5,315.333,30.5,255.5c0-59.833,23.3-116.084,65.608-158.392C138.416,54.8,194.667,31.5,254.5,31.5   c59.833,0,116.084,23.3,158.392,65.608C455.2,139.416,478.5,195.667,478.5,255.5C478.5,315.333,455.2,371.584,412.892,413.892z" fill="#BA051B"/><path d="M201.666,205.07c21.076,0,40.384,12.532,48.041,31.181l23.858,54.388l2.745,6.111   c10.793,25.13,26.624,36.367,51.436,36.456c29.502,0,51.74-19.537,51.762-45.444c0-26.04-14.396-35.79-39.23-43.883   c-2.227-0.732-4.394-1.443-6.458-2.079c-15.824-4.971-25.374-7.975-25.374-20.299c0-9.994,7.716-17.237,18.339-17.237   c8.145,0,14.204,3.396,19.648,11.008c0.51,0.703,1.479,0.954,2.256,0.547l15.964-8.167c0.437-0.222,0.762-0.621,0.895-1.073   c0.141-0.466,0.081-0.969-0.148-1.391c-8.574-15.217-20.913-22.6-37.728-22.6c-25.618,0-42.16,15.483-42.16,39.459   c0,24.523,16.009,34.451,45.54,44.187c17.111,5.689,24.664,8.722,24.664,20.876c0,13.701-12.339,23.554-29.184,22.948   c-17.644-0.592-23.007-9.928-29.724-25.256c-11.37-25.944-24.316-56.245-24.45-56.563c-12.99-29.961-38.757-47.153-70.685-47.153   c-42.167,0-76.478,34.318-76.478,76.492c0,42.16,34.303,76.478,76.478,76.478c23,0,44.571-10.187,59.152-27.956   c0.414-0.518,0.518-1.213,0.259-1.835l-9.639-22.252c-0.274-0.636-0.88-1.043-1.576-1.058c-0.681-0.044-1.317,0.348-1.635,0.954   c-9.107,17.37-26.95,28.193-46.569,28.193c-28.933,0-52.479-23.569-52.479-52.524C149.187,228.639,172.726,205.07,201.666,205.07z" fill="#BA051B"/></g></svg>